<svg width="20" height="21" viewBox="0 0 20 21" fill="none" xmlns="http://www.w3.org/2000/svg">
<path d="M4.792 7.63738L8.6722 1.30925C8.77637 1.13564 8.90658 1.0096 9.06283 0.931129C9.21908 0.852657 9.38401 0.813768 9.55762 0.814462C9.73123 0.814462 9.89616 0.853699 10.0524 0.932171C10.2087 1.01064 10.3389 1.13634 10.443 1.30925L14.3232 7.63738C14.4274 7.81099 14.4795 7.99328 14.4795 8.18425C14.4795 8.37523 14.4361 8.54884 14.3493 8.70509C14.2625 8.86134 14.141 8.98738 13.9847 9.08321C13.8285 9.17905 13.6462 9.22661 13.4378 9.22592H5.67741C5.46908 9.22592 5.28679 9.178 5.13054 9.08217C4.97429 8.98634 4.85276 8.86064 4.76595 8.70509C4.67915 8.54884 4.63575 8.37523 4.63575 8.18425C4.63575 7.99328 4.68783 7.81099 4.792 7.63738ZM15.2868 20.6843C13.9847 20.6843 12.8778 20.2283 11.966 19.3165C11.0541 18.4047 10.5986 17.2981 10.5993 15.9968C10.5993 14.6947 11.0552 13.5877 11.967 12.6759C12.8788 11.7641 13.9854 11.3086 15.2868 11.3093C16.5889 11.3093 17.6958 11.7652 18.6076 12.677C19.5194 13.5888 19.975 14.6954 19.9743 15.9968C19.9743 17.2988 19.5184 18.4058 18.6066 19.3176C17.6948 20.2294 16.5882 20.6849 15.2868 20.6843ZM0.182621 19.1218V12.8718C0.182621 12.5766 0.282621 12.329 0.482621 12.129C0.682621 11.929 0.929843 11.8294 1.22429 11.8301H7.47429C7.76943 11.8301 8.017 11.9301 8.217 12.1301C8.417 12.3301 8.51665 12.5773 8.51595 12.8718V19.1218C8.51595 19.4169 8.41595 19.6645 8.21595 19.8645C8.01595 20.0645 7.76873 20.1641 7.47429 20.1634H1.22429C0.929149 20.1634 0.681579 20.0634 0.481579 19.8634C0.281579 19.6634 0.181926 19.4162 0.182621 19.1218ZM15.2868 18.6009C16.016 18.6009 16.6323 18.3492 17.1357 17.8457C17.6392 17.3422 17.891 16.7259 17.891 15.9968C17.891 15.2676 17.6392 14.6513 17.1357 14.1478C16.6323 13.6443 16.016 13.3926 15.2868 13.3926C14.5576 13.3926 13.9413 13.6443 13.4378 14.1478C12.9344 14.6513 12.6826 15.2676 12.6826 15.9968C12.6826 16.7259 12.9344 17.3422 13.4378 17.8457C13.9413 18.3492 14.5576 18.6009 15.2868 18.6009ZM2.26595 18.0801H6.43262V13.9134H2.26595V18.0801ZM7.52637 7.14259H11.5889L9.55762 3.86134L7.52637 7.14259Z" fill="white"/>
</svg>
