<svg width="27" height="27" viewBox="0 0 27 27" fill="none" xmlns="http://www.w3.org/2000/svg">
<path d="M10.1021 19.5616C7.45103 19.5616 5.20762 18.6432 3.37183 16.8064C1.53605 14.9697 0.617672 12.7263 0.616699 10.0762C0.616699 7.42515 1.53508 5.18174 3.37183 3.34595C5.20859 1.51017 7.452 0.591793 10.1021 0.59082C12.7531 0.59082 14.9965 1.5092 16.8323 3.34595C18.6681 5.18271 19.5865 7.42612 19.5874 10.0762C19.5874 11.1463 19.4172 12.1557 19.0767 13.1042C18.7362 14.0527 18.2741 14.8918 17.6904 15.6215L25.8624 23.7935C26.1299 24.061 26.2637 24.4015 26.2637 24.815C26.2637 25.2285 26.1299 25.569 25.8624 25.8365C25.5948 26.104 25.2543 26.2378 24.8409 26.2378C24.4274 26.2378 24.0869 26.104 23.8194 25.8365L15.6474 17.6645C14.9177 18.2482 14.0786 18.7103 13.1301 19.0508C12.1816 19.3913 11.1722 19.5616 10.1021 19.5616ZM10.1021 16.643C11.9262 16.643 13.4769 16.0043 14.7543 14.7269C16.0316 13.4496 16.6698 11.8993 16.6689 10.0762C16.6689 8.25208 16.0302 6.70134 14.7528 5.42398C13.4755 4.14662 11.9252 3.50842 10.1021 3.50939C8.27796 3.50939 6.72722 4.14808 5.44986 5.42544C4.1725 6.7028 3.5343 8.25305 3.53527 10.0762C3.53527 11.9003 4.17396 13.451 5.45132 14.7284C6.72868 16.0058 8.27893 16.644 10.1021 16.643Z" fill="#7D7D7D"/>
</svg>
