<svg width="22" height="22" viewBox="0 0 22 22" fill="none" xmlns="http://www.w3.org/2000/svg">
<path d="M11.641 10.9329L13.9847 13.2767C14.1757 13.4677 14.2712 13.7066 14.2712 13.9934C14.2712 14.2802 14.1757 14.5274 13.9847 14.735C13.7764 14.9434 13.5288 15.0475 13.242 15.0475C12.9552 15.0475 12.708 14.9434 12.5003 14.735L9.87012 12.1048C9.76595 12.0007 9.68783 11.8833 9.63574 11.7527C9.58366 11.6222 9.55762 11.4878 9.55762 11.3496V7.62565C9.55762 7.33051 9.65762 7.08294 9.85762 6.88294C10.0576 6.68294 10.3048 6.58329 10.5993 6.58398C10.8944 6.58398 11.142 6.68398 11.342 6.88398C11.542 7.08398 11.6416 7.33121 11.641 7.62565V10.9329ZM10.5993 4.50065C10.3041 4.50065 10.0566 4.40065 9.85658 4.20065C9.65658 4.00065 9.55692 3.75343 9.55762 3.45898V2.41732H11.641V3.45898C11.641 3.75412 11.5409 4.00169 11.341 4.20169C11.141 4.40169 10.8937 4.50135 10.5993 4.50065ZM16.8493 10.7507C16.8493 10.4555 16.9493 10.2079 17.1493 10.0079C17.3493 9.80794 17.5965 9.70829 17.8909 9.70898H18.9326V11.7923H17.8909C17.5958 11.7923 17.3482 11.6923 17.1482 11.4923C16.9482 11.2923 16.8486 11.0451 16.8493 10.7507ZM10.5993 17.0007C10.8944 17.0007 11.142 17.1007 11.342 17.3006C11.542 17.5007 11.6416 17.7479 11.641 18.0423V19.084H9.55762V18.0423C9.55762 17.7472 9.65762 17.4996 9.85762 17.2996C10.0576 17.0996 10.3048 17 10.5993 17.0007ZM4.34928 10.7507C4.34928 11.0458 4.24928 11.2934 4.04928 11.4934C3.84928 11.6934 3.60206 11.793 3.30762 11.7923H2.26595V9.70898H3.30762C3.60276 9.70898 3.85033 9.80898 4.05033 10.009C4.25033 10.209 4.34998 10.4562 4.34928 10.7507ZM10.5993 21.1673C9.15831 21.1673 7.80415 20.8937 6.53678 20.3465C5.26942 19.7993 4.16699 19.0572 3.22949 18.1204C2.29199 17.1829 1.54998 16.0805 1.00345 14.8132C0.456923 13.5458 0.183312 12.1916 0.182617 10.7507C0.182617 9.30968 0.456228 7.95551 1.00345 6.68815C1.55067 5.42079 2.29269 4.31836 3.22949 3.38086C4.16699 2.44336 5.26942 1.70135 6.53678 1.15482C7.80415 0.60829 9.15831 0.334679 10.5993 0.333984C12.0403 0.333984 13.3944 0.607596 14.6618 1.15482C15.9291 1.70204 17.0316 2.44405 17.9691 3.38086C18.9066 4.31836 19.6489 5.42079 20.1962 6.68815C20.7434 7.95551 21.0166 9.30968 21.0159 10.7507C21.0159 12.1916 20.7423 13.5458 20.1951 14.8132C19.6479 16.0805 18.9059 17.1829 17.9691 18.1204C17.0316 19.0579 15.9291 19.8003 14.6618 20.3475C13.3944 20.8947 12.0403 21.168 10.5993 21.1673ZM18.9326 10.7507C18.9326 8.42426 18.1253 6.45378 16.5107 4.83919C14.8962 3.22461 12.9257 2.41732 10.5993 2.41732C8.27289 2.41732 6.30241 3.22461 4.68783 4.83919C3.07324 6.45378 2.26595 8.42426 2.26595 10.7507C2.26595 13.077 3.07324 15.0475 4.68783 16.6621C6.30241 18.2767 8.27289 19.084 10.5993 19.084C12.9257 19.084 14.8962 18.2767 16.5107 16.6621C18.1253 15.0475 18.9326 13.077 18.9326 10.7507Z" fill="white"/>
</svg>
