<svg width="21" height="21" viewBox="0 0 21 21" fill="none" xmlns="http://www.w3.org/2000/svg">
<path d="M9.19929 20.8613C8.84513 20.8613 8.54804 20.7413 8.30804 20.5013C8.06804 20.2613 7.94846 19.9647 7.94929 19.6113V12.1113L0.699291 2.86133C0.386792 2.44466 0.339708 2.00716 0.558042 1.54883C0.776375 1.0905 1.15679 0.861328 1.69929 0.861328H19.1993C19.741 0.861328 20.1214 1.0905 20.3405 1.54883C20.5597 2.00716 20.5126 2.44466 20.1993 2.86133L12.9493 12.1113V19.6113C12.9493 19.9655 12.8293 20.2626 12.5893 20.5026C12.3493 20.7426 12.0526 20.8622 11.6993 20.8613H9.19929Z" fill="white"/>
</svg>
